<svg width="7" height="10" viewBox="0 0 7 10" fill="none" xmlns="http://www.w3.org/2000/svg">
<path d="M3.62931 10C3.65811 10 3.68691 10 3.71571 10C4.5079 9.96737 5.29986 9.75529 5.94806 9.13539C6.75441 8.385 7.01384 7.47144 6.99944 6.80261C6.97064 5.90539 6.65362 5.38337 6.04885 4.9429C5.48704 4.50244 5.02627 4.33932 4.34927 4.14356C3.8885 4.01305 3.67251 3.98041 3.39892 3.89885C2.90911 3.73573 2.33315 3.55627 2.16036 3.14844C2.03076 2.87112 2.14596 2.41436 2.36194 2.2186C2.57793 2.02284 2.92351 1.74551 3.60051 1.74551C4.29167 1.74551 4.68069 2.12072 5.09827 2.38173C6.13525 3.00163 6.88424 1.9739 6.88424 1.9739C6.66802 1.66395 6.42323 1.30506 5.89046 0.880915C5.32865 0.424144 4.4935 0 3.60051 0C2.30435 0 1.54095 0.538337 1.18097 0.929854C0.676762 1.4845 0.431976 2.30016 0.417577 2.85481C0.403178 3.65417 0.705559 4.53507 1.58415 5.0571C2.18915 5.41598 3.1251 5.5628 3.7445 5.75856C4.24847 5.90539 5.19906 6.15007 5.19906 7.01468C5.21346 7.83034 4.17648 8.18924 3.61491 8.18924C2.99551 8.18924 2.57793 7.92822 2.33315 7.7651C2.24675 7.69983 2.03076 7.56934 2.01636 7.55302C0.719957 6.85156 0 7.92822 0 7.92822C0.0143992 7.94454 0.475174 8.66232 1.54095 9.3801C2.24675 9.86949 2.96671 10 3.62931 10Z" fill="#D9D5D1"/>
</svg>
